<mxfile host="app.diagrams.net" modified="2024-05-10T13:39:47.610Z" agent="Mozilla/5.0 (Windows NT 10.0; Win64; x64) AppleWebKit/537.36 (KHTML, like Gecko) Chrome/124.0.0.0 Safari/537.36" etag="u7ZdaqdUQBFAZpQBAhxQ" version="24.3.1" type="google">
  <diagram name="PÃ¡gina-1" id="LxCyUGWXj48_A2JVKCkh">
    <mxGraphModel grid="1" page="1" gridSize="10" guides="1" tooltips="1" connect="1" arrows="1" fold="1" pageScale="1" pageWidth="827" pageHeight="1169" math="0" shadow="0">
      <root>
        <mxCell id="0" />
        <mxCell id="1" parent="0" />
        <mxCell id="bD0EaajMMmDaM-F_oc7n-17" value="OS" style="swimlane;childLayout=stackLayout;horizontal=1;startSize=50;horizontalStack=0;rounded=1;fontSize=14;fontStyle=0;strokeWidth=2;resizeParent=0;resizeLast=1;shadow=0;dashed=0;align=center;arcSize=4;whiteSpace=wrap;html=1;" vertex="1" parent="1">
          <mxGeometry x="620" y="400" width="230" height="600" as="geometry" />
        </mxCell>
        <mxCell id="bD0EaajMMmDaM-F_oc7n-18" value="ID_OS&lt;div&gt;ID_Cliente&lt;/div&gt;&lt;div&gt;ID_TipoAtendimento&lt;/div&gt;&lt;div&gt;ID_EnderecoBusca&lt;/div&gt;&lt;div&gt;ID_EnderecoEntrega&lt;/div&gt;&lt;div&gt;&lt;span style=&quot;background-color: initial;&quot;&gt;ID_Atendente&lt;/span&gt;&lt;br&gt;&lt;/div&gt;&lt;div&gt;ID_TipoProduto&lt;/div&gt;&lt;div&gt;ID_Marca&lt;/div&gt;&lt;div&gt;ID_Modelo&lt;/div&gt;&lt;div&gt;&lt;div&gt;ID_Status&lt;/div&gt;&lt;div&gt;ID_Tecnico&lt;br&gt;&lt;/div&gt;&lt;div&gt;ID_Filial&lt;br&gt;&lt;/div&gt;&lt;div&gt;ID_FormaPagto&lt;/div&gt;&lt;div&gt;ID_PlanoPagto&lt;/div&gt;&lt;div&gt;ID_Fechador&lt;/div&gt;&lt;div&gt;ID_Exclusao&lt;/div&gt;&lt;div&gt;DataAbertura&lt;/div&gt;&lt;/div&gt;&lt;div&gt;Acessorios&lt;/div&gt;&lt;div&gt;Serie&lt;/div&gt;&lt;div&gt;DescricaoProblema&lt;/div&gt;&lt;div&gt;Especificacao&lt;/div&gt;&lt;div&gt;DataCompra&lt;/div&gt;&lt;div&gt;DataFechamento&lt;/div&gt;&lt;div&gt;DescricaoServico&lt;/div&gt;&lt;div&gt;ValorMO&lt;/div&gt;&lt;div&gt;ValorPeca&lt;/div&gt;&lt;div&gt;ValorDesconto&lt;/div&gt;&lt;div&gt;ValorTotal&lt;/div&gt;&lt;div&gt;Observacoes&lt;/div&gt;&lt;div&gt;DataOficina&lt;/div&gt;&lt;div&gt;ObsFechamento&lt;/div&gt;&lt;div&gt;contato&lt;/div&gt;&lt;div&gt;DataGarantia&lt;/div&gt;&lt;div&gt;DataExclusao&lt;/div&gt;&lt;div&gt;NumeroOS&lt;/div&gt;&lt;div&gt;&lt;br&gt;&lt;/div&gt;&lt;div&gt;&lt;br&gt;&lt;/div&gt;" style="align=left;strokeColor=none;fillColor=none;spacingLeft=4;fontSize=12;verticalAlign=top;resizable=0;rotatable=0;part=1;html=1;" vertex="1" parent="bD0EaajMMmDaM-F_oc7n-17">
          <mxGeometry y="50" width="230" height="550" as="geometry" />
        </mxCell>
        <mxCell id="bD0EaajMMmDaM-F_oc7n-21" value="Funcionario" style="swimlane;childLayout=stackLayout;horizontal=1;startSize=50;horizontalStack=0;rounded=1;fontSize=14;fontStyle=0;strokeWidth=2;resizeParent=0;resizeLast=1;shadow=0;dashed=0;align=center;arcSize=4;whiteSpace=wrap;html=1;" vertex="1" parent="1">
          <mxGeometry x="350" y="-50" width="140" height="200" as="geometry" />
        </mxCell>
        <mxCell id="bD0EaajMMmDaM-F_oc7n-22" value="ID_Funcionarios&lt;div&gt;ID_Status&lt;/div&gt;&lt;div&gt;ID_Filial&lt;/div&gt;&lt;div&gt;NomeFuncionario&lt;/div&gt;&lt;div&gt;DataAdmissao&lt;/div&gt;&lt;div&gt;DataDemissao&lt;/div&gt;&lt;div&gt;Departamento&lt;/div&gt;&lt;div&gt;Funcao&lt;/div&gt;&lt;div&gt;Senha&lt;/div&gt;&lt;div&gt;&lt;br&gt;&lt;/div&gt;" style="align=left;strokeColor=none;fillColor=none;spacingLeft=4;fontSize=12;verticalAlign=top;resizable=0;rotatable=0;part=1;html=1;" vertex="1" parent="bD0EaajMMmDaM-F_oc7n-21">
          <mxGeometry y="50" width="140" height="150" as="geometry" />
        </mxCell>
        <mxCell id="bD0EaajMMmDaM-F_oc7n-23" value="Filial" style="swimlane;childLayout=stackLayout;horizontal=1;startSize=50;horizontalStack=0;rounded=1;fontSize=14;fontStyle=0;strokeWidth=2;resizeParent=0;resizeLast=1;shadow=0;dashed=0;align=center;arcSize=4;whiteSpace=wrap;html=1;" vertex="1" parent="1">
          <mxGeometry x="130" y="110" width="160" height="190" as="geometry" />
        </mxCell>
        <mxCell id="bD0EaajMMmDaM-F_oc7n-24" value="ID_Filial&lt;div&gt;Nome&lt;/div&gt;&lt;div&gt;Endereco&lt;/div&gt;&lt;div&gt;Bairro&lt;/div&gt;&lt;div&gt;Cidade&lt;/div&gt;&lt;div&gt;Estado&lt;/div&gt;&lt;div&gt;Fone&lt;/div&gt;&lt;div&gt;Celular&lt;/div&gt;&lt;div&gt;CNPJ&lt;/div&gt;&lt;div&gt;&lt;br&gt;&lt;/div&gt;" style="align=left;strokeColor=none;fillColor=none;spacingLeft=4;fontSize=12;verticalAlign=top;resizable=0;rotatable=0;part=1;html=1;" vertex="1" parent="bD0EaajMMmDaM-F_oc7n-23">
          <mxGeometry y="50" width="160" height="140" as="geometry" />
        </mxCell>
        <mxCell id="bD0EaajMMmDaM-F_oc7n-25" value="Servico" style="swimlane;childLayout=stackLayout;horizontal=1;startSize=50;horizontalStack=0;rounded=1;fontSize=14;fontStyle=0;strokeWidth=2;resizeParent=0;resizeLast=1;shadow=0;dashed=0;align=center;arcSize=4;whiteSpace=wrap;html=1;" vertex="1" parent="1">
          <mxGeometry x="75" y="367.5" width="160" height="110" as="geometry" />
        </mxCell>
        <mxCell id="bD0EaajMMmDaM-F_oc7n-26" value="ID_Servico&lt;div&gt;DescServico&lt;/div&gt;&lt;div&gt;Valor&lt;/div&gt;" style="align=left;strokeColor=none;fillColor=none;spacingLeft=4;fontSize=12;verticalAlign=top;resizable=0;rotatable=0;part=1;html=1;" vertex="1" parent="bD0EaajMMmDaM-F_oc7n-25">
          <mxGeometry y="50" width="160" height="60" as="geometry" />
        </mxCell>
        <mxCell id="bD0EaajMMmDaM-F_oc7n-28" value="Status" style="swimlane;childLayout=stackLayout;horizontal=1;startSize=50;horizontalStack=0;rounded=1;fontSize=14;fontStyle=0;strokeWidth=2;resizeParent=0;resizeLast=1;shadow=0;dashed=0;align=center;arcSize=4;whiteSpace=wrap;html=1;" vertex="1" parent="1">
          <mxGeometry x="75" y="570" width="160" height="120" as="geometry" />
        </mxCell>
        <mxCell id="bD0EaajMMmDaM-F_oc7n-29" value="ID_Status&lt;div&gt;DescStatus&lt;/div&gt;&lt;div&gt;Tipo&lt;/div&gt;" style="align=left;strokeColor=none;fillColor=none;spacingLeft=4;fontSize=12;verticalAlign=top;resizable=0;rotatable=0;part=1;html=1;" vertex="1" parent="bD0EaajMMmDaM-F_oc7n-28">
          <mxGeometry y="50" width="160" height="70" as="geometry" />
        </mxCell>
        <mxCell id="bD0EaajMMmDaM-F_oc7n-30" value="TipoAtendimento" style="swimlane;childLayout=stackLayout;horizontal=1;startSize=50;horizontalStack=0;rounded=1;fontSize=14;fontStyle=0;strokeWidth=2;resizeParent=0;resizeLast=1;shadow=0;dashed=0;align=center;arcSize=4;whiteSpace=wrap;html=1;" vertex="1" parent="1">
          <mxGeometry x="75" y="740" width="160" height="120" as="geometry" />
        </mxCell>
        <mxCell id="bD0EaajMMmDaM-F_oc7n-31" value="ID_TipoAtendimento&lt;div&gt;DescTipoAtendimento&lt;/div&gt;" style="align=left;strokeColor=none;fillColor=none;spacingLeft=4;fontSize=12;verticalAlign=top;resizable=0;rotatable=0;part=1;html=1;" vertex="1" parent="bD0EaajMMmDaM-F_oc7n-30">
          <mxGeometry y="50" width="160" height="70" as="geometry" />
        </mxCell>
        <mxCell id="bD0EaajMMmDaM-F_oc7n-33" value="OSServico" style="swimlane;childLayout=stackLayout;horizontal=1;startSize=50;horizontalStack=0;rounded=1;fontSize=14;fontStyle=0;strokeWidth=2;resizeParent=0;resizeLast=1;shadow=0;dashed=0;align=center;arcSize=4;whiteSpace=wrap;html=1;" vertex="1" parent="1">
          <mxGeometry x="290" y="1210" width="170" height="140" as="geometry" />
        </mxCell>
        <mxCell id="bD0EaajMMmDaM-F_oc7n-34" value="ID_Registro&lt;div&gt;ID_OS&lt;/div&gt;&lt;div&gt;Descricao&lt;/div&gt;&lt;div&gt;ValorUnit&lt;/div&gt;&lt;div&gt;Qtde&lt;/div&gt;" style="align=left;strokeColor=none;fillColor=none;spacingLeft=4;fontSize=12;verticalAlign=top;resizable=0;rotatable=0;part=1;html=1;" vertex="1" parent="bD0EaajMMmDaM-F_oc7n-33">
          <mxGeometry y="50" width="170" height="90" as="geometry" />
        </mxCell>
        <mxCell id="bD0EaajMMmDaM-F_oc7n-36" value="Acessorio" style="swimlane;childLayout=stackLayout;horizontal=1;startSize=50;horizontalStack=0;rounded=1;fontSize=14;fontStyle=0;strokeWidth=2;resizeParent=0;resizeLast=1;shadow=0;dashed=0;align=center;arcSize=4;whiteSpace=wrap;html=1;" vertex="1" parent="1">
          <mxGeometry x="670" y="-40" width="130" height="117.5" as="geometry" />
        </mxCell>
        <mxCell id="bD0EaajMMmDaM-F_oc7n-37" value="ID_Acessorio&lt;div&gt;DescAcessorio&lt;/div&gt;" style="align=left;strokeColor=none;fillColor=none;spacingLeft=4;fontSize=12;verticalAlign=top;resizable=0;rotatable=0;part=1;html=1;" vertex="1" parent="bD0EaajMMmDaM-F_oc7n-36">
          <mxGeometry y="50" width="130" height="67.5" as="geometry" />
        </mxCell>
        <mxCell id="bD0EaajMMmDaM-F_oc7n-38" value="Observacao" style="swimlane;childLayout=stackLayout;horizontal=1;startSize=50;horizontalStack=0;rounded=1;fontSize=14;fontStyle=0;strokeWidth=2;resizeParent=0;resizeLast=1;shadow=0;dashed=0;align=center;arcSize=4;whiteSpace=wrap;html=1;" vertex="1" parent="1">
          <mxGeometry x="1220" y="370" width="160" height="105" as="geometry" />
        </mxCell>
        <mxCell id="bD0EaajMMmDaM-F_oc7n-39" value="ID_Observacao&lt;div&gt;DescObservacao&lt;/div&gt;" style="align=left;strokeColor=none;fillColor=none;spacingLeft=4;fontSize=12;verticalAlign=top;resizable=0;rotatable=0;part=1;html=1;" vertex="1" parent="bD0EaajMMmDaM-F_oc7n-38">
          <mxGeometry y="50" width="160" height="55" as="geometry" />
        </mxCell>
        <mxCell id="bD0EaajMMmDaM-F_oc7n-40" value="FormaPagamento" style="swimlane;childLayout=stackLayout;horizontal=1;startSize=50;horizontalStack=0;rounded=1;fontSize=14;fontStyle=0;strokeWidth=2;resizeParent=0;resizeLast=1;shadow=0;dashed=0;align=center;arcSize=4;whiteSpace=wrap;html=1;" vertex="1" parent="1">
          <mxGeometry x="1220" y="580" width="160" height="100" as="geometry" />
        </mxCell>
        <mxCell id="bD0EaajMMmDaM-F_oc7n-41" value="ID_FormaPagto&lt;div&gt;DescFormaPagto&lt;/div&gt;" style="align=left;strokeColor=none;fillColor=none;spacingLeft=4;fontSize=12;verticalAlign=top;resizable=0;rotatable=0;part=1;html=1;" vertex="1" parent="bD0EaajMMmDaM-F_oc7n-40">
          <mxGeometry y="50" width="160" height="50" as="geometry" />
        </mxCell>
        <mxCell id="bD0EaajMMmDaM-F_oc7n-42" value="PlanoPagamento" style="swimlane;childLayout=stackLayout;horizontal=1;startSize=50;horizontalStack=0;rounded=1;fontSize=14;fontStyle=0;strokeWidth=2;resizeParent=0;resizeLast=1;shadow=0;dashed=0;align=center;arcSize=4;whiteSpace=wrap;html=1;" vertex="1" parent="1">
          <mxGeometry x="662.5" y="1300" width="145" height="120" as="geometry" />
        </mxCell>
        <mxCell id="bD0EaajMMmDaM-F_oc7n-43" value="ID_PlanoPagamento&lt;div&gt;DescPlanoPagto&lt;/div&gt;&lt;div&gt;Parcelas&lt;/div&gt;&lt;div&gt;Juros&lt;/div&gt;" style="align=left;strokeColor=none;fillColor=none;spacingLeft=4;fontSize=12;verticalAlign=top;resizable=0;rotatable=0;part=1;html=1;" vertex="1" parent="bD0EaajMMmDaM-F_oc7n-42">
          <mxGeometry y="50" width="145" height="70" as="geometry" />
        </mxCell>
        <mxCell id="bD0EaajMMmDaM-F_oc7n-44" value="Marca" style="swimlane;childLayout=stackLayout;horizontal=1;startSize=50;horizontalStack=0;rounded=1;fontSize=14;fontStyle=0;strokeWidth=2;resizeParent=0;resizeLast=1;shadow=0;dashed=0;align=center;arcSize=4;whiteSpace=wrap;html=1;" vertex="1" parent="1">
          <mxGeometry x="1220" y="1540" width="160" height="120" as="geometry" />
        </mxCell>
        <mxCell id="bD0EaajMMmDaM-F_oc7n-45" value="ID_Marca&lt;div&gt;DescMarca&lt;/div&gt;&lt;div&gt;Principal&lt;/div&gt;" style="align=left;strokeColor=none;fillColor=none;spacingLeft=4;fontSize=12;verticalAlign=top;resizable=0;rotatable=0;part=1;html=1;" vertex="1" parent="bD0EaajMMmDaM-F_oc7n-44">
          <mxGeometry y="50" width="160" height="70" as="geometry" />
        </mxCell>
        <mxCell id="bD0EaajMMmDaM-F_oc7n-46" value="TipoProduto" style="swimlane;childLayout=stackLayout;horizontal=1;startSize=50;horizontalStack=0;rounded=1;fontSize=14;fontStyle=0;strokeWidth=2;resizeParent=0;resizeLast=1;shadow=0;dashed=0;align=center;arcSize=4;whiteSpace=wrap;html=1;" vertex="1" parent="1">
          <mxGeometry x="1220" y="740" width="160" height="120" as="geometry" />
        </mxCell>
        <mxCell id="bD0EaajMMmDaM-F_oc7n-47" value="ID_TipoProduto&lt;div&gt;DescTipoProduto&lt;/div&gt;&lt;div&gt;Principal&lt;/div&gt;" style="align=left;strokeColor=none;fillColor=none;spacingLeft=4;fontSize=12;verticalAlign=top;resizable=0;rotatable=0;part=1;html=1;" vertex="1" parent="bD0EaajMMmDaM-F_oc7n-46">
          <mxGeometry y="50" width="160" height="70" as="geometry" />
        </mxCell>
        <mxCell id="bD0EaajMMmDaM-F_oc7n-48" value="Email" style="swimlane;childLayout=stackLayout;horizontal=1;startSize=50;horizontalStack=0;rounded=1;fontSize=14;fontStyle=0;strokeWidth=2;resizeParent=0;resizeLast=1;shadow=0;dashed=0;align=center;arcSize=4;whiteSpace=wrap;html=1;" vertex="1" parent="1">
          <mxGeometry x="820" y="-210" width="130" height="120" as="geometry" />
        </mxCell>
        <mxCell id="bD0EaajMMmDaM-F_oc7n-49" value="ID_Cliente&lt;div&gt;ID_Email&lt;/div&gt;&lt;div&gt;TipoEmail&lt;/div&gt;&lt;div&gt;Email&lt;/div&gt;" style="align=left;strokeColor=none;fillColor=none;spacingLeft=4;fontSize=12;verticalAlign=top;resizable=0;rotatable=0;part=1;html=1;" vertex="1" parent="bD0EaajMMmDaM-F_oc7n-48">
          <mxGeometry y="50" width="130" height="70" as="geometry" />
        </mxCell>
        <mxCell id="bD0EaajMMmDaM-F_oc7n-50" value="Fone" style="swimlane;childLayout=stackLayout;horizontal=1;startSize=50;horizontalStack=0;rounded=1;fontSize=14;fontStyle=0;strokeWidth=2;resizeParent=0;resizeLast=1;shadow=0;dashed=0;align=center;arcSize=4;whiteSpace=wrap;html=1;" vertex="1" parent="1">
          <mxGeometry x="1200" y="-210" width="160" height="140" as="geometry" />
        </mxCell>
        <mxCell id="bD0EaajMMmDaM-F_oc7n-51" value="ID_Cliente&lt;div&gt;ID_Fone&lt;/div&gt;&lt;div&gt;TipoFone&lt;/div&gt;&lt;div&gt;Numero&lt;/div&gt;&lt;div&gt;Contato&lt;/div&gt;" style="align=left;strokeColor=none;fillColor=none;spacingLeft=4;fontSize=12;verticalAlign=top;resizable=0;rotatable=0;part=1;html=1;" vertex="1" parent="bD0EaajMMmDaM-F_oc7n-50">
          <mxGeometry y="50" width="160" height="90" as="geometry" />
        </mxCell>
        <mxCell id="JkFx2bOYbhQQI63Pt8Ow-1" value="" style="endArrow=ERoneToMany;html=1;rounded=0;entryX=0;entryY=0;entryDx=0;entryDy=0;edgeStyle=elbowEdgeStyle;endFill=0;startArrow=ERmandOne;startFill=0;exitX=0.998;exitY=0.116;exitDx=0;exitDy=0;exitPerimeter=0;" edge="1" parent="1" source="bD0EaajMMmDaM-F_oc7n-22" target="bD0EaajMMmDaM-F_oc7n-18">
          <mxGeometry relative="1" as="geometry">
            <mxPoint x="660" y="700" as="sourcePoint" />
            <mxPoint x="820" y="700" as="targetPoint" />
            <Array as="points">
              <mxPoint x="540" y="210" />
            </Array>
          </mxGeometry>
        </mxCell>
        <mxCell id="2BZEGxLUR42mfOz6ShUK-10" value="" style="endArrow=ERzeroToMany;html=1;rounded=0;exitX=0.991;exitY=0.163;exitDx=0;exitDy=0;edgeStyle=elbowEdgeStyle;exitPerimeter=0;entryX=-0.006;entryY=0.032;entryDx=0;entryDy=0;entryPerimeter=0;endFill=0;startArrow=ERmandOne;startFill=0;" edge="1" parent="1" source="bD0EaajMMmDaM-F_oc7n-24" target="bD0EaajMMmDaM-F_oc7n-18">
          <mxGeometry relative="1" as="geometry">
            <mxPoint x="200.00000000000006" y="221.10000000000002" as="sourcePoint" />
            <mxPoint x="527.6599999999999" y="628.89" as="targetPoint" />
            <Array as="points">
              <mxPoint x="400" y="350" />
              <mxPoint x="340" y="420" />
            </Array>
          </mxGeometry>
        </mxCell>
        <mxCell id="2BZEGxLUR42mfOz6ShUK-11" value="" style="endArrow=ERmandOne;html=1;rounded=0;entryX=0;entryY=0.25;entryDx=0;entryDy=0;exitX=0.81;exitY=1.014;exitDx=0;exitDy=0;exitPerimeter=0;edgeStyle=orthogonalEdgeStyle;startArrow=ERzeroToMany;startFill=0;endFill=0;" edge="1" parent="1" target="bD0EaajMMmDaM-F_oc7n-45" source="7o83lbSfofCICqUbHubp-3">
          <mxGeometry relative="1" as="geometry">
            <mxPoint x="850.0000000000002" y="463.97" as="sourcePoint" />
            <mxPoint x="1157.26" y="170.00000000000003" as="targetPoint" />
            <Array as="points">
              <mxPoint x="1120" y="1608" />
            </Array>
          </mxGeometry>
        </mxCell>
        <mxCell id="2BZEGxLUR42mfOz6ShUK-14" value="" style="endArrow=ERmandOne;html=1;rounded=0;exitX=1;exitY=0.25;exitDx=0;exitDy=0;entryX=-0.012;entryY=0.337;entryDx=0;entryDy=0;entryPerimeter=0;startArrow=ERoneToMany;startFill=0;endFill=0;" edge="1" parent="1" source="bD0EaajMMmDaM-F_oc7n-29" target="bD0EaajMMmDaM-F_oc7n-18">
          <mxGeometry relative="1" as="geometry">
            <mxPoint x="540" y="570" as="sourcePoint" />
            <mxPoint x="700" y="570" as="targetPoint" />
          </mxGeometry>
        </mxCell>
        <mxCell id="2BZEGxLUR42mfOz6ShUK-15" value="" style="endArrow=ERmandOne;html=1;rounded=0;exitX=1;exitY=0.25;exitDx=0;exitDy=0;entryX=-0.003;entryY=0.651;entryDx=0;entryDy=0;entryPerimeter=0;startArrow=ERoneToMany;startFill=0;endFill=0;" edge="1" parent="1" source="bD0EaajMMmDaM-F_oc7n-31" target="bD0EaajMMmDaM-F_oc7n-18">
          <mxGeometry relative="1" as="geometry">
            <mxPoint x="540" y="700" as="sourcePoint" />
            <mxPoint x="700" y="700" as="targetPoint" />
          </mxGeometry>
        </mxCell>
        <mxCell id="2BZEGxLUR42mfOz6ShUK-20" value="" style="endArrow=ERoneToMany;html=1;rounded=0;entryX=0.5;entryY=0;entryDx=0;entryDy=0;exitX=0.5;exitY=1;exitDx=0;exitDy=0;endFill=0;startArrow=ERmandOne;startFill=0;" edge="1" parent="1" source="bD0EaajMMmDaM-F_oc7n-18" target="bD0EaajMMmDaM-F_oc7n-42">
          <mxGeometry relative="1" as="geometry">
            <mxPoint x="900" y="960" as="sourcePoint" />
            <mxPoint x="1060" y="960" as="targetPoint" />
          </mxGeometry>
        </mxCell>
        <mxCell id="2BZEGxLUR42mfOz6ShUK-22" value="" style="endArrow=ERoneToMany;html=1;rounded=0;exitX=1.004;exitY=0.103;exitDx=0;exitDy=0;exitPerimeter=0;edgeStyle=elbowEdgeStyle;startArrow=ERmandOne;startFill=0;endFill=0;entryX=-0.017;entryY=0.391;entryDx=0;entryDy=0;entryPerimeter=0;" edge="1" parent="1" source="bD0EaajMMmDaM-F_oc7n-18" target="bD0EaajMMmDaM-F_oc7n-39">
          <mxGeometry relative="1" as="geometry">
            <mxPoint x="770" y="460" as="sourcePoint" />
            <mxPoint x="1160" y="440" as="targetPoint" />
            <Array as="points">
              <mxPoint x="1130" y="460" />
              <mxPoint x="1120" y="490" />
              <mxPoint x="1090" y="490" />
            </Array>
          </mxGeometry>
        </mxCell>
        <mxCell id="2BZEGxLUR42mfOz6ShUK-26" value="" style="endArrow=ERoneToMany;html=1;rounded=0;exitX=0.5;exitY=0;exitDx=0;exitDy=0;endFill=0;startArrow=ERmandOne;startFill=0;entryX=0.5;entryY=1;entryDx=0;entryDy=0;" edge="1" parent="1" source="bD0EaajMMmDaM-F_oc7n-17" target="bD0EaajMMmDaM-F_oc7n-37">
          <mxGeometry relative="1" as="geometry">
            <mxPoint x="770" y="210" as="sourcePoint" />
            <mxPoint x="830" y="100" as="targetPoint" />
          </mxGeometry>
        </mxCell>
        <mxCell id="2BZEGxLUR42mfOz6ShUK-27" value="" style="endArrow=ERmandOne;html=1;rounded=0;exitX=0.999;exitY=0.377;exitDx=0;exitDy=0;entryX=-0.012;entryY=0.107;entryDx=0;entryDy=0;entryPerimeter=0;edgeStyle=orthogonalEdgeStyle;endFill=0;startArrow=ERoneToMany;startFill=0;exitPerimeter=0;" edge="1" parent="1" source="bD0EaajMMmDaM-F_oc7n-26" target="bD0EaajMMmDaM-F_oc7n-18">
          <mxGeometry relative="1" as="geometry">
            <mxPoint x="770" y="460" as="sourcePoint" />
            <mxPoint x="930" y="460" as="targetPoint" />
            <Array as="points">
              <mxPoint x="320" y="440" />
              <mxPoint x="320" y="510" />
              <mxPoint x="610" y="510" />
              <mxPoint x="610" y="509" />
            </Array>
          </mxGeometry>
        </mxCell>
        <mxCell id="2BZEGxLUR42mfOz6ShUK-29" value="" style="endArrow=ERmandOne;html=1;rounded=0;entryX=0;entryY=0.25;entryDx=0;entryDy=0;exitX=1.015;exitY=0.348;exitDx=0;exitDy=0;exitPerimeter=0;startArrow=ERmandOne;startFill=0;endFill=0;" edge="1" parent="1" source="bD0EaajMMmDaM-F_oc7n-18" target="bD0EaajMMmDaM-F_oc7n-41">
          <mxGeometry relative="1" as="geometry">
            <mxPoint x="680" y="550" as="sourcePoint" />
            <mxPoint x="840" y="550" as="targetPoint" />
          </mxGeometry>
        </mxCell>
        <mxCell id="2BZEGxLUR42mfOz6ShUK-34" value="" style="endArrow=ERoneToMany;html=1;rounded=0;exitX=1.012;exitY=0.659;exitDx=0;exitDy=0;exitPerimeter=0;startArrow=ERmandOne;startFill=0;endFill=0;entryX=-0.002;entryY=0.361;entryDx=0;entryDy=0;entryPerimeter=0;" edge="1" parent="1" source="bD0EaajMMmDaM-F_oc7n-18" target="bD0EaajMMmDaM-F_oc7n-47">
          <mxGeometry relative="1" as="geometry">
            <mxPoint x="680" y="800" as="sourcePoint" />
            <mxPoint x="1160" y="833" as="targetPoint" />
          </mxGeometry>
        </mxCell>
        <mxCell id="2BZEGxLUR42mfOz6ShUK-35" value="" style="endArrow=ERmandOne;html=1;rounded=0;entryX=0;entryY=0;entryDx=0;entryDy=0;endFill=0;startArrow=ERoneToMany;startFill=0;edgeStyle=elbowEdgeStyle;" edge="1" parent="1" target="7o83lbSfofCICqUbHubp-13">
          <mxGeometry relative="1" as="geometry">
            <mxPoint x="900" y="-90" as="sourcePoint" />
            <mxPoint x="840" y="300" as="targetPoint" />
            <Array as="points">
              <mxPoint x="900" y="-60" />
            </Array>
          </mxGeometry>
        </mxCell>
        <mxCell id="2BZEGxLUR42mfOz6ShUK-36" value="" style="endArrow=ERoneToMany;html=1;rounded=0;exitX=1;exitY=0;exitDx=0;exitDy=0;edgeStyle=elbowEdgeStyle;endFill=0;startArrow=ERmandOne;startFill=0;" edge="1" parent="1" source="7o83lbSfofCICqUbHubp-13" target="bD0EaajMMmDaM-F_oc7n-51">
          <mxGeometry relative="1" as="geometry">
            <mxPoint x="680" y="800" as="sourcePoint" />
            <mxPoint x="1253" y="-67" as="targetPoint" />
            <Array as="points">
              <mxPoint x="1250" y="-20" />
            </Array>
          </mxGeometry>
        </mxCell>
        <mxCell id="2BZEGxLUR42mfOz6ShUK-37" value="" style="endArrow=ERmandOne;html=1;rounded=0;exitX=1;exitY=0;exitDx=0;exitDy=0;edgeStyle=elbowEdgeStyle;endFill=0;startArrow=ERoneToMany;startFill=0;entryX=0.086;entryY=1.004;entryDx=0;entryDy=0;entryPerimeter=0;" edge="1" parent="1" source="bD0EaajMMmDaM-F_oc7n-34" target="bD0EaajMMmDaM-F_oc7n-18">
          <mxGeometry relative="1" as="geometry">
            <mxPoint x="680" y="800" as="sourcePoint" />
            <mxPoint x="620" y="960" as="targetPoint" />
            <Array as="points">
              <mxPoint x="640" y="1160" />
            </Array>
          </mxGeometry>
        </mxCell>
        <mxCell id="7o83lbSfofCICqUbHubp-2" value="Produto" style="swimlane;childLayout=stackLayout;horizontal=1;startSize=50;horizontalStack=0;rounded=1;fontSize=14;fontStyle=0;strokeWidth=2;resizeParent=0;resizeLast=1;shadow=0;dashed=0;align=center;arcSize=4;whiteSpace=wrap;html=1;" vertex="1" parent="1">
          <mxGeometry x="990" y="1210" width="160" height="260" as="geometry" />
        </mxCell>
        <mxCell id="7o83lbSfofCICqUbHubp-3" value="ID_Produto&lt;div&gt;ID_Filial&lt;/div&gt;&lt;div&gt;ID_Marca&lt;/div&gt;&lt;div&gt;ID_Modelo&lt;/div&gt;&lt;div&gt;DsProduto&lt;/div&gt;&lt;div&gt;VlCusto&lt;/div&gt;&lt;div&gt;VlVenda&lt;/div&gt;&lt;div&gt;DtCadastro&lt;/div&gt;&lt;div&gt;Qt_Minima&lt;/div&gt;&lt;div&gt;Qt_Estoque&lt;/div&gt;&lt;div&gt;FlBalcao&lt;/div&gt;&lt;div&gt;FlAtivo&lt;/div&gt;&lt;div&gt;Codigo&lt;/div&gt;&lt;div&gt;Uniidade&lt;/div&gt;&lt;div&gt;&lt;br&gt;&lt;/div&gt;" style="align=left;strokeColor=none;fillColor=none;spacingLeft=4;fontSize=12;verticalAlign=top;resizable=0;rotatable=0;part=1;html=1;" vertex="1" parent="7o83lbSfofCICqUbHubp-2">
          <mxGeometry y="50" width="160" height="210" as="geometry" />
        </mxCell>
        <mxCell id="7o83lbSfofCICqUbHubp-4" value="Endereco" style="swimlane;childLayout=stackLayout;horizontal=1;startSize=50;horizontalStack=0;rounded=1;fontSize=14;fontStyle=0;strokeWidth=2;resizeParent=0;resizeLast=1;shadow=0;dashed=0;align=center;arcSize=4;whiteSpace=wrap;html=1;" vertex="1" parent="1">
          <mxGeometry x="990" y="-500" width="160" height="230" as="geometry" />
        </mxCell>
        <mxCell id="7o83lbSfofCICqUbHubp-5" value="ID_Cliente&lt;div&gt;ID_Endereco&lt;/div&gt;&lt;div&gt;TipoEndereco&lt;/div&gt;&lt;div&gt;Endereco&lt;/div&gt;&lt;div&gt;Complemento&lt;/div&gt;&lt;div&gt;Bairro&lt;/div&gt;&lt;div&gt;Cidade&lt;/div&gt;&lt;div&gt;Estado&lt;/div&gt;&lt;div&gt;CEP&lt;/div&gt;&lt;div&gt;Observacao&lt;/div&gt;" style="align=left;strokeColor=none;fillColor=none;spacingLeft=4;fontSize=12;verticalAlign=top;resizable=0;rotatable=0;part=1;html=1;" vertex="1" parent="7o83lbSfofCICqUbHubp-4">
          <mxGeometry y="50" width="160" height="180" as="geometry" />
        </mxCell>
        <mxCell id="7o83lbSfofCICqUbHubp-6" value="Modelo" style="swimlane;childLayout=stackLayout;horizontal=1;startSize=50;horizontalStack=0;rounded=1;fontSize=14;fontStyle=0;strokeWidth=2;resizeParent=0;resizeLast=1;shadow=0;dashed=0;align=center;arcSize=4;whiteSpace=wrap;html=1;" vertex="1" parent="1">
          <mxGeometry x="1220" y="960" width="160" height="120" as="geometry" />
        </mxCell>
        <mxCell id="7o83lbSfofCICqUbHubp-7" value="ID_Modelo&lt;div&gt;ID_Marca&lt;/div&gt;&lt;div&gt;&lt;span style=&quot;background-color: initial;&quot;&gt;ID_TipoProduto&lt;/span&gt;&lt;br&gt;&lt;/div&gt;&lt;div&gt;&lt;div&gt;DescModelo&lt;/div&gt;&lt;/div&gt;&lt;div&gt;&lt;br&gt;&lt;/div&gt;" style="align=left;strokeColor=none;fillColor=none;spacingLeft=4;fontSize=12;verticalAlign=top;resizable=0;rotatable=0;part=1;html=1;" vertex="1" parent="7o83lbSfofCICqUbHubp-6">
          <mxGeometry y="50" width="160" height="70" as="geometry" />
        </mxCell>
        <mxCell id="7o83lbSfofCICqUbHubp-8" value="Categoria" style="swimlane;childLayout=stackLayout;horizontal=1;startSize=50;horizontalStack=0;rounded=1;fontSize=14;fontStyle=0;strokeWidth=2;resizeParent=0;resizeLast=1;shadow=0;dashed=0;align=center;arcSize=4;whiteSpace=wrap;html=1;" vertex="1" parent="1">
          <mxGeometry x="1190" y="145" width="160" height="120" as="geometry" />
        </mxCell>
        <mxCell id="7o83lbSfofCICqUbHubp-9" value="ID_Categoria&lt;div&gt;DsCategoria&lt;/div&gt;" style="align=left;strokeColor=none;fillColor=none;spacingLeft=4;fontSize=12;verticalAlign=top;resizable=0;rotatable=0;part=1;html=1;" vertex="1" parent="7o83lbSfofCICqUbHubp-8">
          <mxGeometry y="50" width="160" height="70" as="geometry" />
        </mxCell>
        <mxCell id="7o83lbSfofCICqUbHubp-12" value="Cliente" style="swimlane;childLayout=stackLayout;horizontal=1;startSize=50;horizontalStack=0;rounded=1;fontSize=14;fontStyle=0;strokeWidth=2;resizeParent=0;resizeLast=1;shadow=0;dashed=0;align=center;arcSize=4;whiteSpace=wrap;html=1;" vertex="1" parent="1">
          <mxGeometry x="1000" y="-50" width="140" height="210" as="geometry" />
        </mxCell>
        <mxCell id="7o83lbSfofCICqUbHubp-13" value="ID_Cliente&lt;div&gt;ID_Status&lt;/div&gt;&lt;div&gt;ID_Filial&lt;br&gt;&lt;div&gt;NomeCliente&lt;/div&gt;&lt;div&gt;NomeFonetico&lt;/div&gt;&lt;div&gt;DataCadastro&lt;/div&gt;&lt;div&gt;CPF&lt;/div&gt;&lt;div&gt;CNPJ&lt;/div&gt;&lt;div&gt;InscrMunicipal&lt;/div&gt;&lt;div&gt;DataAtualizacao&lt;/div&gt;&lt;div&gt;&lt;br&gt;&lt;/div&gt;&lt;/div&gt;" style="align=left;strokeColor=none;fillColor=none;spacingLeft=4;fontSize=12;verticalAlign=top;resizable=0;rotatable=0;part=1;html=1;" vertex="1" parent="7o83lbSfofCICqUbHubp-12">
          <mxGeometry y="50" width="140" height="160" as="geometry" />
        </mxCell>
        <mxCell id="7o83lbSfofCICqUbHubp-16" value="" style="endArrow=ERmandOne;html=1;rounded=0;entryX=-0.029;entryY=0.109;entryDx=0;entryDy=0;entryPerimeter=0;exitX=1;exitY=0;exitDx=0;exitDy=0;edgeStyle=elbowEdgeStyle;startArrow=ERoneToMany;startFill=0;endFill=0;" edge="1" parent="1" source="bD0EaajMMmDaM-F_oc7n-18" target="7o83lbSfofCICqUbHubp-13">
          <mxGeometry relative="1" as="geometry">
            <mxPoint x="750" y="200" as="sourcePoint" />
            <mxPoint x="910" y="200" as="targetPoint" />
            <Array as="points">
              <mxPoint x="940" y="230" />
              <mxPoint x="990" y="230" />
            </Array>
          </mxGeometry>
        </mxCell>
        <mxCell id="7o83lbSfofCICqUbHubp-19" value="" style="endArrow=ERmandOne;html=1;rounded=0;exitX=0.5;exitY=1;exitDx=0;exitDy=0;entryX=0.5;entryY=0;entryDx=0;entryDy=0;startArrow=ERoneToMany;startFill=0;endFill=0;" edge="1" parent="1" source="7o83lbSfofCICqUbHubp-5" target="7o83lbSfofCICqUbHubp-12">
          <mxGeometry relative="1" as="geometry">
            <mxPoint x="590" y="1040" as="sourcePoint" />
            <mxPoint x="750" y="1040" as="targetPoint" />
          </mxGeometry>
        </mxCell>
        <mxCell id="7o83lbSfofCICqUbHubp-20" value="" style="endArrow=ERoneToMany;html=1;rounded=0;entryX=0;entryY=0;entryDx=0;entryDy=0;exitX=0.92;exitY=0.998;exitDx=0;exitDy=0;exitPerimeter=0;edgeStyle=elbowEdgeStyle;startArrow=ERmandOne;startFill=0;endFill=0;" edge="1" parent="1" source="bD0EaajMMmDaM-F_oc7n-18" target="7o83lbSfofCICqUbHubp-3">
          <mxGeometry relative="1" as="geometry">
            <mxPoint x="826.9999999999999" y="1010.0000000000002" as="sourcePoint" />
            <mxPoint x="990.92" y="1266.7" as="targetPoint" />
            <Array as="points">
              <mxPoint x="832" y="1130" />
            </Array>
          </mxGeometry>
        </mxCell>
        <mxCell id="7o83lbSfofCICqUbHubp-21" value="" style="endArrow=ERmandOne;html=1;rounded=0;edgeStyle=orthogonalEdgeStyle;endFill=0;startArrow=ERzeroToMany;startFill=0;entryX=1.007;entryY=0.027;entryDx=0;entryDy=0;entryPerimeter=0;exitX=-0.01;exitY=0.138;exitDx=0;exitDy=0;exitPerimeter=0;" edge="1" parent="1" source="7o83lbSfofCICqUbHubp-9" target="bD0EaajMMmDaM-F_oc7n-18">
          <mxGeometry relative="1" as="geometry">
            <mxPoint x="1230" y="170" as="sourcePoint" />
            <mxPoint x="900.48" y="477.5" as="targetPoint" />
            <Array as="points">
              <mxPoint x="1080" y="205" />
              <mxPoint x="1080" y="465" />
            </Array>
          </mxGeometry>
        </mxCell>
        <mxCell id="7o83lbSfofCICqUbHubp-22" value="" style="endArrow=ERmandOne;html=1;rounded=0;exitX=0.794;exitY=-0.011;exitDx=0;exitDy=0;exitPerimeter=0;edgeStyle=elbowEdgeStyle;startArrow=ERzeroToMany;startFill=0;endFill=0;elbow=vertical;entryX=-0.002;entryY=0.133;entryDx=0;entryDy=0;entryPerimeter=0;" edge="1" parent="1" source="7o83lbSfofCICqUbHubp-2" target="7o83lbSfofCICqUbHubp-7">
          <mxGeometry relative="1" as="geometry">
            <mxPoint x="740" y="1020" as="sourcePoint" />
            <mxPoint x="1220" y="952" as="targetPoint" />
            <Array as="points">
              <mxPoint x="1160" y="1019" />
              <mxPoint x="1170" y="1000" />
              <mxPoint x="1160" y="959" />
            </Array>
          </mxGeometry>
        </mxCell>
      </root>
    </mxGraphModel>
  </diagram>
</mxfile>
